{
	"asset":{
		"generator":"Khronos glTF Blender I/O v3.6.28",
		"version":"2.0"
	},
	"scene":0,
	"scenes":[
		{
			"name":"Scene",
			"nodes":[
				0
			]
		}
	],
	"nodes":[
		{
			"mesh":0,
			"name":"DoorFrame_Round_Brick"
		}
	],
	"materials":[
		{
			"doubleSided":true,
			"name":"MI_RockTrim",
			"normalTexture":{
				"index":0
			},
			"pbrMetallicRoughness":{
				"baseColorTexture":{
					"index":1
				},
				"metallicRoughnessTexture":{
					"index":2
				}
			}
		}
	],
	"meshes":[
		{
			"name":"Cube.017_Retopology.007",
			"primitives":[
				{
					"attributes":{
						"POSITION":0,
						"NORMAL":1,
						"TEXCOORD_0":2,
						"TANGENT":3
					},
					"indices":4,
					"material":0
				}
			]
		}
	],
	"textures":[
		{
			"sampler":0,
			"source":0
		},
		{
			"sampler":0,
			"source":1
		},
		{
			"sampler":0,
			"source":2
		}
	],
	"images":[
		{
			"mimeType":"image/png",
			"name":"T_RockTrim_Normal",
			"uri":"../../images/quaternius/T_RockTrim_Normal.png"
		},
		{
			"mimeType":"image/png",
			"name":"T_RockTrim_BaseColor",
			"uri":"../../images/quaternius/T_RockTrim_BaseColor.png"
		},
		{
			"mimeType":"image/png",
			"name":"T_RockTrim_ORM",
			"uri":"../../images/quaternius/T_RockTrim_ORM.png"
		}
	],
	"accessors":[
		{
			"bufferView":0,
			"componentType":5126,
			"count":1619,
			"max":[
				0.7990041375160217,
				0.2951337397098541,
				2.5844788551330566
			],
			"min":[
				-0.804115891456604,
				-0.18203623592853546,
				-0.0016925190575420856
			],
			"type":"VEC3"
		},
		{
			"bufferView":1,
			"componentType":5126,
			"count":1619,
			"type":"VEC3"
		},
		{
			"bufferView":2,
			"componentType":5126,
			"count":1619,
			"type":"VEC2"
		},
		{
			"bufferView":3,
			"componentType":5126,
			"count":1619,
			"type":"VEC4"
		},
		{
			"bufferView":4,
			"componentType":5123,
			"count":6138,
			"type":"SCALAR"
		}
	],
	"bufferViews":[
		{
			"buffer":0,
			"byteLength":19428,
			"byteOffset":0,
			"target":34962
		},
		{
			"buffer":0,
			"byteLength":19428,
			"byteOffset":19428,
			"target":34962
		},
		{
			"buffer":0,
			"byteLength":12952,
			"byteOffset":38856,
			"target":34962
		},
		{
			"buffer":0,
			"byteLength":25904,
			"byteOffset":51808,
			"target":34962
		},
		{
			"buffer":0,
			"byteLength":12276,
			"byteOffset":77712,
			"target":34963
		}
	],
	"samplers":[
		{
			"magFilter":9729,
			"minFilter":9987
		}
	],
	"buffers":[
		{
			"byteLength":89988,
			"uri":"Doorframe_Round_Brick.bin"
		}
	]
}
