{
	"asset":{
		"generator":"Khronos glTF Blender I/O v3.6.28",
		"version":"2.0"
	},
	"scene":0,
	"scenes":[
		{
			"name":"Scene",
			"nodes":[
				0
			]
		}
	],
	"nodes":[
		{
			"mesh":0,
			"name":"Door_2_Round"
		}
	],
	"materials":[
		{
			"doubleSided":true,
			"name":"MI_WoodTrim_Wear",
			"normalTexture":{
				"index":0
			},
			"pbrMetallicRoughness":{
				"baseColorTexture":{
					"index":1
				},
				"metallicFactor":0,
				"metallicRoughnessTexture":{
					"index":2
				}
			}
		},
		{
			"doubleSided":true,
			"name":"MI_MetalOrnaments",
			"pbrMetallicRoughness":{
				"baseColorTexture":{
					"index":3
				},
				"metallicRoughnessTexture":{
					"index":4
				}
			}
		}
	],
	"meshes":[
		{
			"name":"Cube.237",
			"primitives":[
				{
					"attributes":{
						"POSITION":0,
						"NORMAL":1,
						"TEXCOORD_0":2,
						"TEXCOORD_1":3,
						"TANGENT":4
					},
					"indices":5,
					"material":0
				},
				{
					"attributes":{
						"POSITION":6,
						"NORMAL":7,
						"TEXCOORD_0":8,
						"TEXCOORD_1":9,
						"TANGENT":10
					},
					"indices":11,
					"material":1
				}
			]
		}
	],
	"textures":[
		{
			"sampler":0,
			"source":0
		},
		{
			"sampler":0,
			"source":1
		},
		{
			"sampler":0,
			"source":2
		},
		{
			"sampler":0,
			"source":3
		},
		{
			"sampler":0,
			"source":4
		}
	],
	"images":[
		{
			"mimeType":"image/png",
			"name":"T_WoodTrim_Normal",
			"uri":"../../images/quaternius/T_WoodTrim_Normal.png"
		},
		{
			"mimeType":"image/png",
			"name":"T_WoodTrim_BaseColor",
			"uri":"../../images/quaternius/T_WoodTrim_BaseColor.png"
		},
		{
			"mimeType":"image/png",
			"name":"T_WoodTrim_Roughness",
			"uri":"../../images/quaternius/T_WoodTrim_Roughness.png"
		},
		{
			"mimeType":"image/png",
			"name":"T_MetalOrnaments_BaseColor",
			"uri":"../../images/quaternius/T_MetalOrnaments_BaseColor.png"
		},
		{
			"mimeType":"image/png",
			"name":"T_MetalOrnaments_Roughness",
			"uri":"../../images/quaternius/T_MetalOrnaments_Roughness.png"
		}
	],
	"accessors":[
		{
			"bufferView":0,
			"componentType":5126,
			"count":1398,
			"max":[
				1.072784423828125,
				0.04973819851875305,
				2.3558285236358643
			],
			"min":[
				-0.04266441613435745,
				-0.04973819851875305,
				0.028338909149169922
			],
			"type":"VEC3"
		},
		{
			"bufferView":1,
			"componentType":5126,
			"count":1398,
			"type":"VEC3"
		},
		{
			"bufferView":2,
			"componentType":5126,
			"count":1398,
			"type":"VEC2"
		},
		{
			"bufferView":3,
			"componentType":5126,
			"count":1398,
			"type":"VEC2"
		},
		{
			"bufferView":4,
			"componentType":5126,
			"count":1398,
			"type":"VEC4"
		},
		{
			"bufferView":5,
			"componentType":5123,
			"count":1872,
			"type":"SCALAR"
		},
		{
			"bufferView":6,
			"componentType":5126,
			"count":3618,
			"max":[
				1.0376418828964233,
				0.13368189334869385,
				2.038383722305298
			],
			"min":[
				0.022681348025798798,
				-0.12721848487854004,
				0.3268890678882599
			],
			"type":"VEC3"
		},
		{
			"bufferView":7,
			"componentType":5126,
			"count":3618,
			"type":"VEC3"
		},
		{
			"bufferView":8,
			"componentType":5126,
			"count":3618,
			"type":"VEC2"
		},
		{
			"bufferView":9,
			"componentType":5126,
			"count":3618,
			"type":"VEC2"
		},
		{
			"bufferView":10,
			"componentType":5126,
			"count":3618,
			"type":"VEC4"
		},
		{
			"bufferView":11,
			"componentType":5123,
			"count":16692,
			"type":"SCALAR"
		}
	],
	"bufferViews":[
		{
			"buffer":0,
			"byteLength":16776,
			"byteOffset":0,
			"target":34962
		},
		{
			"buffer":0,
			"byteLength":16776,
			"byteOffset":16776,
			"target":34962
		},
		{
			"buffer":0,
			"byteLength":11184,
			"byteOffset":33552,
			"target":34962
		},
		{
			"buffer":0,
			"byteLength":11184,
			"byteOffset":44736,
			"target":34962
		},
		{
			"buffer":0,
			"byteLength":22368,
			"byteOffset":55920,
			"target":34962
		},
		{
			"buffer":0,
			"byteLength":3744,
			"byteOffset":78288,
			"target":34963
		},
		{
			"buffer":0,
			"byteLength":43416,
			"byteOffset":82032,
			"target":34962
		},
		{
			"buffer":0,
			"byteLength":43416,
			"byteOffset":125448,
			"target":34962
		},
		{
			"buffer":0,
			"byteLength":28944,
			"byteOffset":168864,
			"target":34962
		},
		{
			"buffer":0,
			"byteLength":28944,
			"byteOffset":197808,
			"target":34962
		},
		{
			"buffer":0,
			"byteLength":57888,
			"byteOffset":226752,
			"target":34962
		},
		{
			"buffer":0,
			"byteLength":33384,
			"byteOffset":284640,
			"target":34963
		}
	],
	"samplers":[
		{
			"magFilter":9729,
			"minFilter":9987
		}
	],
	"buffers":[
		{
			"byteLength":318024,
			"uri":"Door_2_Round.bin"
		}
	]
}
