{
	"asset":{
		"generator":"Khronos glTF Blender I/O v3.6.28",
		"version":"2.0"
	},
	"scene":0,
	"scenes":[
		{
			"name":"Scene",
			"nodes":[
				0
			]
		}
	],
	"nodes":[
		{
			"mesh":0,
			"name":"Wall_Plaster_Door_Round"
		}
	],
	"materials":[
		{
			"doubleSided":true,
			"name":"MI_WoodTrim",
			"normalTexture":{
				"index":0
			},
			"pbrMetallicRoughness":{
				"baseColorTexture":{
					"index":1
				},
				"metallicFactor":0,
				"metallicRoughnessTexture":{
					"index":2
				}
			}
		},
		{
			"doubleSided":true,
			"name":"MI_Plaster",
			"normalTexture":{
				"index":3
			},
			"pbrMetallicRoughness":{
				"baseColorTexture":{
					"index":4
				},
				"metallicRoughnessTexture":{
					"index":5
				}
			}
		},
		{
			"doubleSided":true,
			"name":"MI_RockTrim.001",
			"normalTexture":{
				"index":6
			},
			"pbrMetallicRoughness":{
				"baseColorTexture":{
					"index":7
				},
				"metallicRoughnessTexture":{
					"index":8
				}
			}
		}
	],
	"meshes":[
		{
			"name":"Cube.227",
			"primitives":[
				{
					"attributes":{
						"POSITION":0,
						"NORMAL":1,
						"TEXCOORD_0":2,
						"TEXCOORD_1":3,
						"TANGENT":4
					},
					"indices":5,
					"material":0
				},
				{
					"attributes":{
						"POSITION":6,
						"NORMAL":7,
						"TEXCOORD_0":8,
						"TEXCOORD_1":9,
						"TANGENT":10
					},
					"indices":11,
					"material":1
				},
				{
					"attributes":{
						"POSITION":12,
						"NORMAL":13,
						"TEXCOORD_0":14,
						"TEXCOORD_1":15,
						"TANGENT":16
					},
					"indices":17,
					"material":2
				}
			]
		}
	],
	"textures":[
		{
			"sampler":0,
			"source":0
		},
		{
			"sampler":0,
			"source":1
		},
		{
			"sampler":0,
			"source":2
		},
		{
			"sampler":0,
			"source":3
		},
		{
			"sampler":0,
			"source":4
		},
		{
			"sampler":0,
			"source":5
		},
		{
			"sampler":0,
			"source":6
		},
		{
			"sampler":0,
			"source":7
		},
		{
			"sampler":0,
			"source":8
		}
	],
	"images":[
		{
			"mimeType":"image/png",
			"name":"T_WoodTrim_Normal",
			"uri":"../../images/quaternius/T_WoodTrim_Normal.png"
		},
		{
			"mimeType":"image/png",
			"name":"T_WoodTrim_BaseColor",
			"uri":"../../images/quaternius/T_WoodTrim_BaseColor.png"
		},
		{
			"mimeType":"image/png",
			"name":"T_WoodTrim_Roughness",
			"uri":"../../images/quaternius/T_WoodTrim_Roughness.png"
		},
		{
			"mimeType":"image/png",
			"name":"T_Plaster_Normal",
			"uri":"../../images/quaternius/T_Plaster_Normal.png"
		},
		{
			"mimeType":"image/png",
			"name":"T_Plaster_BaseColor",
			"uri":"../../images/quaternius/T_Plaster_BaseColor.png"
		},
		{
			"mimeType":"image/png",
			"name":"T_Plaster_ORM",
			"uri":"../../images/quaternius/T_Plaster_ORM.png"
		},
		{
			"mimeType":"image/png",
			"name":"T_RockTrim_Normal",
			"uri":"../../images/quaternius/T_RockTrim_Normal.png"
		},
		{
			"mimeType":"image/png",
			"name":"T_RockTrim_BaseColor",
			"uri":"../../images/quaternius/T_RockTrim_BaseColor.png"
		},
		{
			"mimeType":"image/png",
			"name":"T_RockTrim_ORM",
			"uri":"../../images/quaternius/T_RockTrim_ORM.png"
		}
	],
	"accessors":[
		{
			"bufferView":0,
			"componentType":5126,
			"count":202,
			"max":[
				1,
				0.3140353262424469,
				3.1226887702941895
			],
			"min":[
				-1.0000001192092896,
				-0.0924467146396637,
				0.6495776176452637
			],
			"type":"VEC3"
		},
		{
			"bufferView":1,
			"componentType":5126,
			"count":202,
			"type":"VEC3"
		},
		{
			"bufferView":2,
			"componentType":5126,
			"count":202,
			"type":"VEC2"
		},
		{
			"bufferView":3,
			"componentType":5126,
			"count":202,
			"type":"VEC2"
		},
		{
			"bufferView":4,
			"componentType":5126,
			"count":202,
			"type":"VEC4"
		},
		{
			"bufferView":5,
			"componentType":5123,
			"count":204,
			"type":"SCALAR"
		},
		{
			"bufferView":6,
			"componentType":5126,
			"count":131,
			"max":[
				1,
				0.2000000923871994,
				3
			],
			"min":[
				-1,
				-1.3113417196564114e-07,
				0
			],
			"type":"VEC3"
		},
		{
			"bufferView":7,
			"componentType":5126,
			"count":131,
			"type":"VEC3"
		},
		{
			"bufferView":8,
			"componentType":5126,
			"count":131,
			"type":"VEC2"
		},
		{
			"bufferView":9,
			"componentType":5126,
			"count":131,
			"type":"VEC2"
		},
		{
			"bufferView":10,
			"componentType":5126,
			"count":131,
			"type":"VEC4"
		},
		{
			"bufferView":11,
			"componentType":5123,
			"count":195,
			"type":"SCALAR"
		},
		{
			"bufferView":12,
			"componentType":5126,
			"count":12,
			"max":[
				1,
				0,
				0.9100615382194519
			],
			"min":[
				-1,
				-4.3711395392165286e-08,
				0
			],
			"type":"VEC3"
		},
		{
			"bufferView":13,
			"componentType":5126,
			"count":12,
			"type":"VEC3"
		},
		{
			"bufferView":14,
			"componentType":5126,
			"count":12,
			"type":"VEC2"
		},
		{
			"bufferView":15,
			"componentType":5126,
			"count":12,
			"type":"VEC2"
		},
		{
			"bufferView":16,
			"componentType":5126,
			"count":12,
			"type":"VEC4"
		},
		{
			"bufferView":17,
			"componentType":5123,
			"count":12,
			"type":"SCALAR"
		}
	],
	"bufferViews":[
		{
			"buffer":0,
			"byteLength":2424,
			"byteOffset":0,
			"target":34962
		},
		{
			"buffer":0,
			"byteLength":2424,
			"byteOffset":2424,
			"target":34962
		},
		{
			"buffer":0,
			"byteLength":1616,
			"byteOffset":4848,
			"target":34962
		},
		{
			"buffer":0,
			"byteLength":1616,
			"byteOffset":6464,
			"target":34962
		},
		{
			"buffer":0,
			"byteLength":3232,
			"byteOffset":8080,
			"target":34962
		},
		{
			"buffer":0,
			"byteLength":408,
			"byteOffset":11312,
			"target":34963
		},
		{
			"buffer":0,
			"byteLength":1572,
			"byteOffset":11720,
			"target":34962
		},
		{
			"buffer":0,
			"byteLength":1572,
			"byteOffset":13292,
			"target":34962
		},
		{
			"buffer":0,
			"byteLength":1048,
			"byteOffset":14864,
			"target":34962
		},
		{
			"buffer":0,
			"byteLength":1048,
			"byteOffset":15912,
			"target":34962
		},
		{
			"buffer":0,
			"byteLength":2096,
			"byteOffset":16960,
			"target":34962
		},
		{
			"buffer":0,
			"byteLength":390,
			"byteOffset":19056,
			"target":34963
		},
		{
			"buffer":0,
			"byteLength":144,
			"byteOffset":19448,
			"target":34962
		},
		{
			"buffer":0,
			"byteLength":144,
			"byteOffset":19592,
			"target":34962
		},
		{
			"buffer":0,
			"byteLength":96,
			"byteOffset":19736,
			"target":34962
		},
		{
			"buffer":0,
			"byteLength":96,
			"byteOffset":19832,
			"target":34962
		},
		{
			"buffer":0,
			"byteLength":192,
			"byteOffset":19928,
			"target":34962
		},
		{
			"buffer":0,
			"byteLength":24,
			"byteOffset":20120,
			"target":34963
		}
	],
	"samplers":[
		{
			"magFilter":9729,
			"minFilter":9987
		}
	],
	"buffers":[
		{
			"byteLength":20144,
			"uri":"Wall_Plaster_Door_Round.bin"
		}
	]
}
