{
	"asset":{
		"generator":"Khronos glTF Blender I/O v3.6.28",
		"version":"2.0"
	},
	"scene":0,
	"scenes":[
		{
			"name":"Scene",
			"nodes":[
				0
			]
		}
	],
	"nodes":[
		{
			"mesh":0,
			"name":"Wall_Plaster_Straight_Base"
		}
	],
	"materials":[
		{
			"doubleSided":true,
			"name":"MI_WoodTrim.001",
			"normalTexture":{
				"index":0
			},
			"pbrMetallicRoughness":{
				"baseColorTexture":{
					"index":1
				},
				"metallicFactor":0,
				"metallicRoughnessTexture":{
					"index":2
				}
			}
		},
		{
			"doubleSided":true,
			"name":"MI_Plaster.001",
			"normalTexture":{
				"index":3
			},
			"pbrMetallicRoughness":{
				"baseColorTexture":{
					"index":4
				},
				"metallicRoughnessTexture":{
					"index":5
				}
			}
		},
		{
			"doubleSided":true,
			"name":"MI_Brick",
			"normalTexture":{
				"index":6
			},
			"pbrMetallicRoughness":{
				"baseColorTexture":{
					"index":7
				},
				"metallicFactor":0,
				"metallicRoughnessTexture":{
					"index":8
				}
			}
		}
	],
	"meshes":[
		{
			"name":"Cube.006",
			"primitives":[
				{
					"attributes":{
						"POSITION":0,
						"NORMAL":1,
						"TEXCOORD_0":2,
						"TEXCOORD_1":3,
						"TANGENT":4
					},
					"indices":5,
					"material":0
				},
				{
					"attributes":{
						"POSITION":6,
						"NORMAL":7,
						"TEXCOORD_0":8,
						"TEXCOORD_1":9,
						"TANGENT":10
					},
					"indices":11,
					"material":1
				},
				{
					"attributes":{
						"POSITION":12,
						"NORMAL":13,
						"TEXCOORD_0":14,
						"TEXCOORD_1":15,
						"TANGENT":16
					},
					"indices":17,
					"material":2
				}
			]
		}
	],
	"textures":[
		{
			"sampler":0,
			"source":0
		},
		{
			"sampler":0,
			"source":1
		},
		{
			"sampler":0,
			"source":2
		},
		{
			"sampler":0,
			"source":3
		},
		{
			"sampler":0,
			"source":4
		},
		{
			"sampler":0,
			"source":5
		},
		{
			"sampler":0,
			"source":6
		},
		{
			"sampler":0,
			"source":7
		},
		{
			"sampler":0,
			"source":8
		}
	],
	"images":[
		{
			"mimeType":"image/png",
			"name":"T_WoodTrim_Normal",
			"uri":"../../images/quaternius/T_WoodTrim_Normal.png"
		},
		{
			"mimeType":"image/png",
			"name":"T_WoodTrim_BaseColor",
			"uri":"../../images/quaternius/T_WoodTrim_BaseColor.png"
		},
		{
			"mimeType":"image/png",
			"name":"T_WoodTrim_Roughness",
			"uri":"../../images/quaternius/T_WoodTrim_Roughness.png"
		},
		{
			"mimeType":"image/png",
			"name":"T_Plaster_Normal",
			"uri":"../../images/quaternius/T_Plaster_Normal.png"
		},
		{
			"mimeType":"image/png",
			"name":"T_Plaster_BaseColor",
			"uri":"../../images/quaternius/T_Plaster_BaseColor.png"
		},
		{
			"mimeType":"image/png",
			"name":"T_Plaster_ORM",
			"uri":"../../images/quaternius/T_Plaster_ORM.png"
		},
		{
			"mimeType":"image/png",
			"name":"T_Brick_Normal",
			"uri":"../../images/quaternius/T_Brick_Normal.png"
		},
		{
			"mimeType":"image/png",
			"name":"T_Brick_BaseColor",
			"uri":"../../images/quaternius/T_Brick_BaseColor.png"
		},
		{
			"mimeType":"image/png",
			"name":"T_Brick_Roughness",
			"uri":"../../images/quaternius/T_Brick_Roughness.png"
		}
	],
	"accessors":[
		{
			"bufferView":0,
			"componentType":5126,
			"count":122,
			"max":[
				1,
				0.3140353262424469,
				3.1226887702941895
			],
			"min":[
				-1.0000001192092896,
				-0.0924467146396637,
				0.6495776176452637
			],
			"type":"VEC3"
		},
		{
			"bufferView":1,
			"componentType":5126,
			"count":122,
			"type":"VEC3"
		},
		{
			"bufferView":2,
			"componentType":5126,
			"count":122,
			"type":"VEC2"
		},
		{
			"bufferView":3,
			"componentType":5126,
			"count":122,
			"type":"VEC2"
		},
		{
			"bufferView":4,
			"componentType":5126,
			"count":122,
			"type":"VEC4"
		},
		{
			"bufferView":5,
			"componentType":5123,
			"count":174,
			"type":"SCALAR"
		},
		{
			"bufferView":6,
			"componentType":5126,
			"count":10,
			"max":[
				1,
				0.2000000923871994,
				3
			],
			"min":[
				-1,
				-1.3113415775478643e-07,
				0
			],
			"type":"VEC3"
		},
		{
			"bufferView":7,
			"componentType":5126,
			"count":10,
			"type":"VEC3"
		},
		{
			"bufferView":8,
			"componentType":5126,
			"count":10,
			"type":"VEC2"
		},
		{
			"bufferView":9,
			"componentType":5126,
			"count":10,
			"type":"VEC2"
		},
		{
			"bufferView":10,
			"componentType":5126,
			"count":10,
			"type":"VEC4"
		},
		{
			"bufferView":11,
			"componentType":5123,
			"count":12,
			"type":"SCALAR"
		},
		{
			"bufferView":12,
			"componentType":5126,
			"count":6,
			"max":[
				1,
				0,
				0.8799999952316284
			],
			"min":[
				-1,
				-4.371138828673793e-08,
				0
			],
			"type":"VEC3"
		},
		{
			"bufferView":13,
			"componentType":5126,
			"count":6,
			"type":"VEC3"
		},
		{
			"bufferView":14,
			"componentType":5126,
			"count":6,
			"type":"VEC2"
		},
		{
			"bufferView":15,
			"componentType":5126,
			"count":6,
			"type":"VEC2"
		},
		{
			"bufferView":16,
			"componentType":5126,
			"count":6,
			"type":"VEC4"
		},
		{
			"bufferView":17,
			"componentType":5123,
			"count":6,
			"type":"SCALAR"
		}
	],
	"bufferViews":[
		{
			"buffer":0,
			"byteLength":1464,
			"byteOffset":0,
			"target":34962
		},
		{
			"buffer":0,
			"byteLength":1464,
			"byteOffset":1464,
			"target":34962
		},
		{
			"buffer":0,
			"byteLength":976,
			"byteOffset":2928,
			"target":34962
		},
		{
			"buffer":0,
			"byteLength":976,
			"byteOffset":3904,
			"target":34962
		},
		{
			"buffer":0,
			"byteLength":1952,
			"byteOffset":4880,
			"target":34962
		},
		{
			"buffer":0,
			"byteLength":348,
			"byteOffset":6832,
			"target":34963
		},
		{
			"buffer":0,
			"byteLength":120,
			"byteOffset":7180,
			"target":34962
		},
		{
			"buffer":0,
			"byteLength":120,
			"byteOffset":7300,
			"target":34962
		},
		{
			"buffer":0,
			"byteLength":80,
			"byteOffset":7420,
			"target":34962
		},
		{
			"buffer":0,
			"byteLength":80,
			"byteOffset":7500,
			"target":34962
		},
		{
			"buffer":0,
			"byteLength":160,
			"byteOffset":7580,
			"target":34962
		},
		{
			"buffer":0,
			"byteLength":24,
			"byteOffset":7740,
			"target":34963
		},
		{
			"buffer":0,
			"byteLength":72,
			"byteOffset":7764,
			"target":34962
		},
		{
			"buffer":0,
			"byteLength":72,
			"byteOffset":7836,
			"target":34962
		},
		{
			"buffer":0,
			"byteLength":48,
			"byteOffset":7908,
			"target":34962
		},
		{
			"buffer":0,
			"byteLength":48,
			"byteOffset":7956,
			"target":34962
		},
		{
			"buffer":0,
			"byteLength":96,
			"byteOffset":8004,
			"target":34962
		},
		{
			"buffer":0,
			"byteLength":12,
			"byteOffset":8100,
			"target":34963
		}
	],
	"samplers":[
		{
			"magFilter":9729,
			"minFilter":9987
		}
	],
	"buffers":[
		{
			"byteLength":8112,
			"uri":"Wall_Plaster_Straight_Base.bin"
		}
	]
}
