{
	"asset":{
		"generator":"Khronos glTF Blender I/O v3.6.28",
		"version":"2.0"
	},
	"extensionsUsed":[
		"KHR_lights_punctual"
	],
	"extensionsRequired":[
		"KHR_lights_punctual"
	],
	"extensions":{
		"KHR_lights_punctual":{
			"lights":[
				{
					"color":[
						1,
						0,
						1
					],
					"intensity":10,
					"type":"point",
					"name":"ptLight"
				},
				{
					"color": [1.0, 1.0, 0.8, 1.0],
					"intensity": 1.0,
					"type": "directional",
					"name": "dirLight"
				}
			]
		}
	},
	"scene":0,
	"scenes":[
		{
			"name":"Scene",
			"nodes":[
				80
			]
		}
	],
	"nodes":[
		{
			"mesh":0,
			"name":"Corner_Exterior_Brick.001",
			"translation":[
				9,
				3,
				0
			]
		},
		{
			"mesh":0,
			"name":"Corner_Exterior_Brick.002",
			"rotation":[
				0,
				0,
				0.7071068286895752,
				0.7071067094802856
			],
			"translation":[
				-3,
				3,
				0
			]
		},
		{
			"mesh":0,
			"name":"Corner_Exterior_Brick.003",
			"rotation":[
				0,
				0,
				1,
				0
			],
			"translation":[
				-3,
				-5,
				0
			]
		},
		{
			"mesh":0,
			"name":"Corner_Exterior_Brick.004",
			"rotation":[
				0,
				0,
				-0.7071068286895752,
				0.7071068286895752
			],
			"translation":[
				5,
				-5,
				0
			]
		},
		{
			"mesh":0,
			"name":"Corner_Exterior_Brick.005",
			"rotation":[
				0,
				0,
				-0.7071068286895752,
				0.7071068286895752
			],
			"translation":[
				9,
				-1,
				0
			]
		},
		{
			"mesh":0,
			"name":"Corner_Exterior_Brick.006",
			"rotation":[
				0,
				0,
				0.7071068286895752,
				0.7071067094802856
			],
			"translation":[
				4.800000190734863,
				-0.800000011920929,
				0
			]
		},
		{
			"mesh":1,
			"name":"Door_8_Round.001",
			"translation":[
				-0.5,
				-5,
				0
			]
		},
		{
			"mesh":1,
			"name":"Door_8_Round.002",
			"rotation":[
				0,
				0,
				-1,
				4.371138828673793e-08
			],
			"translation":[
				6.5,
				3,
				0
			]
		},
		{
			"mesh":2,
			"name":"DoorFrame_Round_WoodDark.001",
			"translation":[
				0,
				-5,
				0
			]
		},
		{
			"mesh":2,
			"name":"DoorFrame_Round_WoodDark.002",
			"rotation":[
				0,
				0,
				-1,
				4.371138828673793e-08
			],
			"translation":[
				6,
				3,
				0
			]
		},
		{
			"mesh":3,
			"name":"Floor_UnevenBrick.001",
			"translation":[
				8,
				2,
				0
			]
		},
		{
			"mesh":3,
			"name":"Floor_UnevenBrick.002",
			"translation":[
				8,
				0,
				0
			]
		},
		{
			"mesh":3,
			"name":"Floor_UnevenBrick.003",
			"translation":[
				6,
				2,
				0
			]
		},
		{
			"mesh":3,
			"name":"Floor_UnevenBrick.004",
			"translation":[
				6,
				0,
				0
			]
		},
		{
			"mesh":3,
			"name":"Floor_UnevenBrick.005",
			"translation":[
				4,
				2,
				0
			]
		},
		{
			"mesh":3,
			"name":"Floor_UnevenBrick.006",
			"translation":[
				4,
				0,
				0
			]
		},
		{
			"mesh":3,
			"name":"Floor_UnevenBrick.007",
			"translation":[
				2,
				2,
				0
			]
		},
		{
			"mesh":3,
			"name":"Floor_UnevenBrick.008",
			"translation":[
				2,
				0,
				0
			]
		},
		{
			"mesh":3,
			"name":"Floor_UnevenBrick.009",
			"translation":[
				0,
				2,
				0
			]
		},
		{
			"mesh":3,
			"name":"Floor_UnevenBrick.010"
		},
		{
			"mesh":3,
			"name":"Floor_UnevenBrick.011",
			"translation":[
				-2,
				2,
				0
			]
		},
		{
			"mesh":3,
			"name":"Floor_UnevenBrick.012",
			"translation":[
				-2,
				0,
				0
			]
		},
		{
			"mesh":3,
			"name":"Floor_UnevenBrick.013",
			"translation":[
				4,
				-2,
				0
			]
		},
		{
			"mesh":3,
			"name":"Floor_UnevenBrick.014",
			"translation":[
				4,
				-4,
				0
			]
		},
		{
			"mesh":3,
			"name":"Floor_UnevenBrick.015",
			"translation":[
				2,
				-2,
				0
			]
		},
		{
			"mesh":3,
			"name":"Floor_UnevenBrick.016",
			"translation":[
				2,
				-4,
				0
			]
		},
		{
			"mesh":3,
			"name":"Floor_UnevenBrick.017",
			"translation":[
				0,
				-2,
				0
			]
		},
		{
			"mesh":3,
			"name":"Floor_UnevenBrick.018",
			"translation":[
				0,
				-4,
				0
			]
		},
		{
			"mesh":3,
			"name":"Floor_UnevenBrick.019",
			"translation":[
				-2,
				-2,
				0
			]
		},
		{
			"mesh":3,
			"name":"Floor_UnevenBrick.020",
			"translation":[
				-2,
				-4,
				0
			]
		},
		{
			"mesh":4,
			"name":"Floor_WoodDark.001",
			"translation":[
				8,
				2,
				3
			]
		},
		{
			"mesh":4,
			"name":"Floor_WoodDark.002",
			"translation":[
				8,
				0,
				3
			]
		},
		{
			"mesh":4,
			"name":"Floor_WoodDark.003",
			"translation":[
				6,
				2,
				3
			]
		},
		{
			"mesh":4,
			"name":"Floor_WoodDark.004",
			"translation":[
				6,
				0,
				3
			]
		},
		{
			"mesh":4,
			"name":"Floor_WoodDark.005",
			"translation":[
				4,
				2,
				3
			]
		},
		{
			"mesh":4,
			"name":"Floor_WoodDark.006",
			"translation":[
				4,
				0,
				3
			]
		},
		{
			"mesh":4,
			"name":"Floor_WoodDark.007",
			"translation":[
				2,
				2,
				3
			]
		},
		{
			"mesh":4,
			"name":"Floor_WoodDark.008",
			"translation":[
				2,
				0,
				3
			]
		},
		{
			"mesh":4,
			"name":"Floor_WoodDark.009",
			"translation":[
				0,
				2,
				3
			]
		},
		{
			"mesh":4,
			"name":"Floor_WoodDark.010",
			"translation":[
				0,
				0,
				3
			]
		},
		{
			"mesh":4,
			"name":"Floor_WoodDark.011",
			"translation":[
				-2,
				2,
				3
			]
		},
		{
			"mesh":4,
			"name":"Floor_WoodDark.012",
			"translation":[
				-2,
				0,
				3
			]
		},
		{
			"mesh":4,
			"name":"Floor_WoodDark.013",
			"translation":[
				4,
				-2,
				3
			]
		},
		{
			"mesh":4,
			"name":"Floor_WoodDark.014",
			"translation":[
				4,
				-4,
				3
			]
		},
		{
			"mesh":4,
			"name":"Floor_WoodDark.015",
			"translation":[
				2,
				-2,
				3
			]
		},
		{
			"mesh":4,
			"name":"Floor_WoodDark.016",
			"translation":[
				2,
				-4,
				3
			]
		},
		{
			"mesh":4,
			"name":"Floor_WoodDark.017",
			"translation":[
				0,
				-2,
				3
			]
		},
		{
			"mesh":4,
			"name":"Floor_WoodDark.018",
			"translation":[
				0,
				-4,
				3
			]
		},
		{
			"mesh":4,
			"name":"Floor_WoodDark.019",
			"translation":[
				-2,
				-2,
				3
			]
		},
		{
			"mesh":4,
			"name":"Floor_WoodDark.020",
			"translation":[
				-2,
				-4,
				3
			]
		},
		{
			"extensions":{
				"KHR_lights_punctual":{
					"light":0
				}
			},
			"name":"Point",
			"translation":[
				0,
				1,
				2
			],
			"scale": [ 0.2, 0.2, 0.2 ]
		},
		{
			"mesh":5,
			"name":"Roof_Front_Brick4.001",
			"rotation":[
				0,
				0,
				0.7071068286895752,
				0.7071067094802856
			],
			"translation":[
				9,
				1,
				3
			]
		},
		{
			"mesh":6,
			"name":"Roof_Front_Brick8.001",
			"translation":[
				1,
				-5,
				3
			]
		},
		{
			"mesh":6,
			"name":"Roof_Front_Brick8.002",
			"rotation":[
				0,
				0,
				-1,
				4.371138828673793e-08
			],
			"translation":[
				1,
				3,
				3
			]
		},
		{
			"mesh":7,
			"name":"Roof_RoundTiles_4x6.001",
			"rotation":[
				0,
				0,
				0.7071068286895752,
				0.7071067094802856
			],
			"translation":[
				6,
				1,
				3
			]
		},
		{
			"mesh":8,
			"name":"Roof_RoundTiles_8x8.001",
			"translation":[
				1,
				-1,
				3
			]
		},
		{
			"mesh":9,
			"name":"Wall_UnevenBrick_Door_Round.001",
			"translation":[
				0,
				-5,
				0
			]
		},
		{
			"mesh":9,
			"name":"Wall_UnevenBrick_Door_Round.002",
			"rotation":[
				0,
				0,
				-1,
				4.371138828673793e-08
			],
			"translation":[
				6,
				3,
				0
			]
		},
		{
			"mesh":10,
			"name":"Wall_UnevenBrick_Straight.001",
			"translation":[
				4,
				-5,
				0
			]
		},
		{
			"mesh":10,
			"name":"Wall_UnevenBrick_Straight.002",
			"rotation":[
				0,
				0,
				0.7071068286895752,
				0.7071067094802856
			],
			"translation":[
				5,
				-4,
				0
			]
		},
		{
			"mesh":10,
			"name":"Wall_UnevenBrick_Straight.003",
			"rotation":[
				0,
				0,
				0.7071068286895752,
				0.7071067094802856
			],
			"translation":[
				5,
				-2,
				0
			]
		},
		{
			"mesh":10,
			"name":"Wall_UnevenBrick_Straight.004",
			"translation":[
				6,
				-1,
				0
			]
		},
		{
			"mesh":10,
			"name":"Wall_UnevenBrick_Straight.005",
			"translation":[
				8,
				-1,
				0
			]
		},
		{
			"mesh":10,
			"name":"Wall_UnevenBrick_Straight.006",
			"rotation":[
				0,
				0,
				0.7071068286895752,
				0.7071068286895752
			],
			"translation":[
				9,
				0,
				0
			]
		},
		{
			"mesh":10,
			"name":"Wall_UnevenBrick_Straight.007",
			"rotation":[
				0,
				0,
				0.7071068286895752,
				0.7071068286895752
			],
			"translation":[
				9,
				2,
				0
			]
		},
		{
			"mesh":10,
			"name":"Wall_UnevenBrick_Straight.010",
			"rotation":[
				0,
				0,
				1,
				0
			],
			"translation":[
				4,
				3,
				0
			]
		},
		{
			"mesh":10,
			"name":"Wall_UnevenBrick_Straight.011",
			"rotation":[
				0,
				0,
				1,
				0
			],
			"translation":[
				2,
				3,
				0
			]
		},
		{
			"mesh":10,
			"name":"Wall_UnevenBrick_Straight.012",
			"rotation":[
				0,
				0,
				1,
				0
			],
			"translation":[
				0,
				3,
				0
			]
		},
		{
			"mesh":10,
			"name":"Wall_UnevenBrick_Straight.013",
			"rotation":[
				0,
				0,
				1,
				0
			],
			"translation":[
				-2,
				3,
				0
			]
		},
		{
			"mesh":10,
			"name":"Wall_UnevenBrick_Straight.014",
			"rotation":[
				0,
				0,
				-0.7071068286895752,
				0.7071068286895752
			],
			"translation":[
				-3,
				2,
				0
			]
		},
		{
			"mesh":10,
			"name":"Wall_UnevenBrick_Straight.015",
			"rotation":[
				0,
				0,
				-0.7071068286895752,
				0.7071068286895752
			],
			"translation":[
				-3,
				0,
				0
			]
		},
		{
			"mesh":10,
			"name":"Wall_UnevenBrick_Straight.016",
			"rotation":[
				0,
				0,
				-0.7071068286895752,
				0.7071068286895752
			],
			"translation":[
				-3,
				-2,
				0
			]
		},
		{
			"mesh":10,
			"name":"Wall_UnevenBrick_Straight.017",
			"rotation":[
				0,
				0,
				-0.7071068286895752,
				0.7071068286895752
			],
			"translation":[
				-3,
				-4,
				0
			]
		},
		{
			"mesh":11,
			"name":"Wall_UnevenBrick_Window_Thin_Round.001",
			"rotation":[
				0,
				0,
				-1,
				4.371138828673793e-08
			],
			"translation":[
				8,
				3,
				0
			]
		},
		{
			"mesh":11,
			"name":"Wall_UnevenBrick_Window_Thin_Round.002",
			"translation":[
				-2,
				-5,
				0
			]
		},
		{
			"mesh":11,
			"name":"Wall_UnevenBrick_Window_Thin_Round.003",
			"translation":[
				2,
				-5,
				0
			]
		},
		{
			"mesh":12,
			"name":"Window_Thin_Round1.001",
			"rotation":[
				0,
				0,
				-1,
				4.371138828673793e-08
			],
			"translation":[
				8,
				3,
				0
			]
		},
		{
			"mesh":12,
			"name":"Window_Thin_Round1.002",
			"translation":[
				-2,
				-5,
				0
			]
		},
		{
			"mesh":12,
			"name":"Window_Thin_Round1.003",
			"translation":[
				2,
				-5,
				0
			]
		},
		{
			"name": "dir_light_sun",
			"extensions": {
				"KHR_lights_punctual": {
					"light": 1
				}
			}
		},
		{
			"children":[
				0,
				1,
				2,
				3,
				4,
				5,
				6,
				7,
				8,
				9,
				10,
				11,
				12,
				13,
				14,
				15,
				16,
				17,
				18,
				19,
				20,
				21,
				22,
				23,
				24,
				25,
				26,
				27,
				28,
				29,
				30,
				31,
				32,
				33,
				34,
				35,
				36,
				37,
				38,
				39,
				40,
				41,
				42,
				43,
				44,
				45,
				46,
				47,
				48,
				49,
				50,
				51,
				52,
				53,
				54,
				55,
				56,
				57,
				58,
				59,
				60,
				61,
				62,
				63,
				64,
				65,
				66,
				67,
				68,
				69,
				70,
				71,
				72,
				73,
				74,
				75,
				76,
				77,
				78,
				79
			],
			"name":"house_node"
		}
	],
	"materials":[
		{
			"doubleSided":true,
			"name":"MI_RockTrim",
			"normalTexture":{
				"index":0
			},
			"pbrMetallicRoughness":{
				"baseColorTexture":{
					"index":1
				},
				"metallicRoughnessTexture":{
					"index":2
				}
			}
		},
		{
			"doubleSided":true,
			"name":"MI_MetalOrnaments",
			"pbrMetallicRoughness":{
				"baseColorTexture":{
					"index":3
				},
				"metallicRoughnessTexture":{
					"index":4
				}
			}
		},
		{
			"doubleSided":true,
			"name":"MI_WoodTrim_Wear",
			"normalTexture":{
				"index":5
			},
			"pbrMetallicRoughness":{
				"baseColorTexture":{
					"index":6
				},
				"metallicFactor":0,
				"metallicRoughnessTexture":{
					"index":7
				}
			}
		},
		{
			"doubleSided":true,
			"name":"MI_WoodTrim",
			"normalTexture":{
				"index":8
			},
			"pbrMetallicRoughness":{
				"baseColorTexture":{
					"index":9
				},
				"metallicFactor":0,
				"metallicRoughnessTexture":{
					"index":10
				}
			}
		},
		{
			"doubleSided":true,
			"name":"MI_UnevenBrick",
			"normalTexture":{
				"index":11
			},
			"pbrMetallicRoughness":{
				"baseColorTexture":{
					"index":12
				},
				"metallicFactor":0,
				"metallicRoughnessTexture":{
					"index":13
				}
			}
		},
		{
			"doubleSided":true,
			"name":"MI_Plaster",
			"normalTexture":{
				"index":14
			},
			"pbrMetallicRoughness":{
				"baseColorTexture":{
					"index":15
				},
				"metallicRoughnessTexture":{
					"index":16
				}
			}
		},
		{
			"doubleSided":true,
			"name":"MI_RoundTiles",
			"normalTexture":{
				"index":17
			},
			"pbrMetallicRoughness":{
				"baseColorTexture":{
					"index":18
				},
				"metallicFactor":0,
				"metallicRoughnessTexture":{
					"index":19
				}
			}
		},
		{
			"alphaMode":"BLEND",
			"doubleSided":true,
			"name":"MI_WindowGlass",
			"pbrMetallicRoughness":{
				"baseColorFactor":[
					0.800000011920929,
					0.800000011920929,
					0.800000011920929,
					0.09545451402664185
				],
				"metallicFactor":0,
				"roughnessFactor":0.5
			}
		}
	],
	"meshes":[
		{
			"name":"Cube.017_Retopology.059",
			"primitives":[
				{
					"attributes":{
						"POSITION":0,
						"NORMAL":1,
						"TEXCOORD_0":2,
						"TANGENT":3
					},
					"indices":4,
					"material":0
				}
			]
		},
		{
			"name":"Cube.250",
			"primitives":[
				{
					"attributes":{
						"POSITION":5,
						"NORMAL":6,
						"TEXCOORD_0":7,
						"TEXCOORD_1":8,
						"TANGENT":9
					},
					"indices":10,
					"material":1
				},
				{
					"attributes":{
						"POSITION":11,
						"NORMAL":12,
						"TEXCOORD_0":13,
						"TEXCOORD_1":14,
						"TANGENT":15
					},
					"indices":16,
					"material":2
				}
			]
		},
		{
			"name":"Cube.251",
			"primitives":[
				{
					"attributes":{
						"POSITION":17,
						"NORMAL":18,
						"TEXCOORD_0":19,
						"TANGENT":20
					},
					"indices":21,
					"material":3
				}
			]
		},
		{
			"name":"Plane.013",
			"primitives":[
				{
					"attributes":{
						"POSITION":22,
						"NORMAL":23,
						"TEXCOORD_0":24,
						"TANGENT":25
					},
					"indices":26,
					"material":4
				}
			]
		},
		{
			"name":"Plane.032",
			"primitives":[
				{
					"attributes":{
						"POSITION":27,
						"NORMAL":28,
						"TEXCOORD_0":29,
						"TANGENT":30
					},
					"indices":31,
					"material":3
				}
			]
		},
		{
			"name":"Cube.182",
			"primitives":[
				{
					"attributes":{
						"POSITION":32,
						"NORMAL":33,
						"TEXCOORD_0":34,
						"TANGENT":35
					},
					"indices":36,
					"material":3
				},
				{
					"attributes":{
						"POSITION":37,
						"NORMAL":38,
						"TEXCOORD_0":39,
						"TANGENT":40
					},
					"indices":41,
					"material":5
				}
			]
		},
		{
			"name":"Cube.166",
			"primitives":[
				{
					"attributes":{
						"POSITION":42,
						"NORMAL":43,
						"TEXCOORD_0":44,
						"TANGENT":45
					},
					"indices":46,
					"material":3
				},
				{
					"attributes":{
						"POSITION":47,
						"NORMAL":48,
						"TEXCOORD_0":49,
						"TANGENT":50
					},
					"indices":51,
					"material":5
				}
			]
		},
		{
			"name":"Cube.074",
			"primitives":[
				{
					"attributes":{
						"POSITION":52,
						"NORMAL":53,
						"TEXCOORD_0":54,
						"TEXCOORD_1":55,
						"TANGENT":56
					},
					"indices":57,
					"material":3
				},
				{
					"attributes":{
						"POSITION":58,
						"NORMAL":59,
						"TEXCOORD_0":60,
						"TEXCOORD_1":61,
						"TANGENT":62
					},
					"indices":63,
					"material":6
				}
			]
		},
		{
			"name":"Cube.020",
			"primitives":[
				{
					"attributes":{
						"POSITION":64,
						"NORMAL":65,
						"TEXCOORD_0":66,
						"TEXCOORD_1":67,
						"TANGENT":68
					},
					"indices":69,
					"material":3
				},
				{
					"attributes":{
						"POSITION":70,
						"NORMAL":71,
						"TEXCOORD_0":72,
						"TEXCOORD_1":73,
						"TANGENT":74
					},
					"indices":75,
					"material":6
				}
			]
		},
		{
			"name":"Cube.009",
			"primitives":[
				{
					"attributes":{
						"POSITION":76,
						"NORMAL":77,
						"TEXCOORD_0":78,
						"TANGENT":79
					},
					"indices":80,
					"material":4
				},
				{
					"attributes":{
						"POSITION":81,
						"NORMAL":82,
						"TEXCOORD_0":83,
						"TANGENT":84
					},
					"indices":85,
					"material":5
				},
				{
					"attributes":{
						"POSITION":86,
						"NORMAL":87,
						"TEXCOORD_0":88,
						"TANGENT":89
					},
					"indices":90,
					"material":3
				}
			]
		},
		{
			"name":"Cube.059",
			"primitives":[
				{
					"attributes":{
						"POSITION":91,
						"NORMAL":92,
						"TEXCOORD_0":93,
						"TANGENT":94
					},
					"indices":95,
					"material":4
				},
				{
					"attributes":{
						"POSITION":96,
						"NORMAL":97,
						"TEXCOORD_0":98,
						"TANGENT":99
					},
					"indices":100,
					"material":5
				},
				{
					"attributes":{
						"POSITION":101,
						"NORMAL":102,
						"TEXCOORD_0":103,
						"TANGENT":104
					},
					"indices":90,
					"material":3
				}
			]
		},
		{
			"name":"Cube.123",
			"primitives":[
				{
					"attributes":{
						"POSITION":105,
						"NORMAL":106,
						"TEXCOORD_0":107,
						"TEXCOORD_1":108,
						"TANGENT":109
					},
					"indices":110,
					"material":4
				},
				{
					"attributes":{
						"POSITION":111,
						"NORMAL":112,
						"TEXCOORD_0":113,
						"TEXCOORD_1":114,
						"TANGENT":115
					},
					"indices":116,
					"material":5
				},
				{
					"attributes":{
						"POSITION":117,
						"NORMAL":118,
						"TEXCOORD_0":119,
						"TEXCOORD_1":120,
						"TANGENT":121
					},
					"indices":90,
					"material":3
				}
			]
		},
		{
			"name":"Cube.128",
			"primitives":[
				{
					"attributes":{
						"POSITION":122,
						"NORMAL":123,
						"TEXCOORD_0":124,
						"TEXCOORD_1":125,
						"TANGENT":126
					},
					"indices":127,
					"material":2
				},
				{
					"attributes":{
						"POSITION":128,
						"NORMAL":129,
						"TEXCOORD_0":130,
						"TEXCOORD_1":131,
						"TANGENT":132
					},
					"indices":133,
					"material":7
				}
			]
		}
	],
	"textures":[
		{
			"sampler":0,
			"source":0
		},
		{
			"sampler":0,
			"source":1
		},
		{
			"sampler":0,
			"source":2
		},
		{
			"sampler":0,
			"source":3
		},
		{
			"sampler":0,
			"source":4
		},
		{
			"sampler":0,
			"source":5
		},
		{
			"sampler":0,
			"source":6
		},
		{
			"sampler":0,
			"source":7
		},
		{
			"sampler":0,
			"source":5
		},
		{
			"sampler":0,
			"source":6
		},
		{
			"sampler":0,
			"source":7
		},
		{
			"sampler":0,
			"source":8
		},
		{
			"sampler":0,
			"source":9
		},
		{
			"sampler":0,
			"source":10
		},
		{
			"sampler":0,
			"source":11
		},
		{
			"sampler":0,
			"source":12
		},
		{
			"sampler":0,
			"source":13
		},
		{
			"sampler":0,
			"source":14
		},
		{
			"sampler":0,
			"source":15
		},
		{
			"sampler":0,
			"source":16
		}
	],
	"images":[
		{
			"mimeType":"image/png",
			"name":"T_RockTrim_Normal",
			"uri":"T_RockTrim_Normal.png"
		},
		{
			"mimeType":"image/png",
			"name":"T_RockTrim_BaseColor",
			"uri":"T_RockTrim_BaseColor.png"
		},
		{
			"mimeType":"image/png",
			"name":"T_RockTrim_ORM",
			"uri":"T_RockTrim_ORM.png"
		},
		{
			"mimeType":"image/png",
			"name":"T_MetalOrnaments_BaseColor",
			"uri":"T_MetalOrnaments_BaseColor.png"
		},
		{
			"mimeType":"image/png",
			"name":"T_MetalOrnaments_Roughness",
			"uri":"T_MetalOrnaments_Roughness.png"
		},
		{
			"mimeType":"image/png",
			"name":"T_WoodTrim_Normal",
			"uri":"T_WoodTrim_Normal.png"
		},
		{
			"mimeType":"image/png",
			"name":"T_WoodTrim_BaseColor",
			"uri":"T_WoodTrim_BaseColor.png"
		},
		{
			"mimeType":"image/png",
			"name":"T_WoodTrim_Roughness",
			"uri":"T_WoodTrim_Roughness.png"
		},
		{
			"mimeType":"image/png",
			"name":"T_UnevenBrick_Normal",
			"uri":"T_UnevenBrick_Normal.png"
		},
		{
			"mimeType":"image/png",
			"name":"T_UnevenBrick_BaseColor",
			"uri":"T_UnevenBrick_BaseColor.png"
		},
		{
			"mimeType":"image/png",
			"name":"T_UnevenBrick_Roughness",
			"uri":"T_UnevenBrick_Roughness.png"
		},
		{
			"mimeType":"image/png",
			"name":"T_Plaster_Normal",
			"uri":"T_Plaster_Normal.png"
		},
		{
			"mimeType":"image/png",
			"name":"T_Plaster_BaseColor",
			"uri":"T_Plaster_BaseColor.png"
		},
		{
			"mimeType":"image/png",
			"name":"T_Plaster_ORM",
			"uri":"T_Plaster_ORM.png"
		},
		{
			"mimeType":"image/png",
			"name":"T_RoundTiles_Normal",
			"uri":"T_RoundTiles_Normal.png"
		},
		{
			"mimeType":"image/png",
			"name":"T_RoundTiles_BaseColor",
			"uri":"T_RoundTiles_BaseColor.png"
		},
		{
			"mimeType":"image/png",
			"name":"T_RoundTiles_Roughness",
			"uri":"T_RoundTiles_Roughness.png"
		}
	],
	"accessors":[
		{
			"bufferView":0,
			"componentType":5126,
			"count":2424,
			"max":[
				0.17772896587848663,
				0.19913415610790253,
				3.008535861968994
			],
			"min":[
				-0.35294169187545776,
				-0.37669962644577026,
				-0.007091104984283447
			],
			"type":"VEC3"
		},
		{
			"bufferView":1,
			"componentType":5126,
			"count":2424,
			"type":"VEC3"
		},
		{
			"bufferView":2,
			"componentType":5126,
			"count":2424,
			"type":"VEC2"
		},
		{
			"bufferView":3,
			"componentType":5126,
			"count":2424,
			"type":"VEC4"
		},
		{
			"bufferView":4,
			"componentType":5123,
			"count":9306,
			"type":"SCALAR"
		},
		{
			"bufferView":5,
			"componentType":5126,
			"count":725,
			"max":[
				1.0157819986343384,
				0.10770562291145325,
				1.250353217124939
			],
			"min":[
				0.027867160737514496,
				-0.0917586237192154,
				0.0711740255355835
			],
			"type":"VEC3"
		},
		{
			"bufferView":6,
			"componentType":5126,
			"count":725,
			"type":"VEC3"
		},
		{
			"bufferView":7,
			"componentType":5126,
			"count":725,
			"type":"VEC2"
		},
		{
			"bufferView":8,
			"componentType":5126,
			"count":725,
			"type":"VEC2"
		},
		{
			"bufferView":9,
			"componentType":5126,
			"count":725,
			"type":"VEC4"
		},
		{
			"bufferView":10,
			"componentType":5123,
			"count":1962,
			"type":"SCALAR"
		},
		{
			"bufferView":11,
			"componentType":5126,
			"count":1269,
			"max":[
				1.0884466171264648,
				0.05755755677819252,
				2.3571219444274902
			],
			"min":[
				-0.06319592148065567,
				-0.05755815654993057,
				0.033089637756347656
			],
			"type":"VEC3"
		},
		{
			"bufferView":12,
			"componentType":5126,
			"count":1269,
			"type":"VEC3"
		},
		{
			"bufferView":13,
			"componentType":5126,
			"count":1269,
			"type":"VEC2"
		},
		{
			"bufferView":14,
			"componentType":5126,
			"count":1269,
			"type":"VEC2"
		},
		{
			"bufferView":15,
			"componentType":5126,
			"count":1269,
			"type":"VEC4"
		},
		{
			"bufferView":16,
			"componentType":5123,
			"count":1464,
			"type":"SCALAR"
		},
		{
			"bufferView":17,
			"componentType":5126,
			"count":601,
			"max":[
				0.7034913897514343,
				0.24002820253372192,
				2.5548486709594727
			],
			"min":[
				-0.7034929394721985,
				-0.29893577098846436,
				-0.008544921875
			],
			"type":"VEC3"
		},
		{
			"bufferView":18,
			"componentType":5126,
			"count":601,
			"type":"VEC3"
		},
		{
			"bufferView":19,
			"componentType":5126,
			"count":601,
			"type":"VEC2"
		},
		{
			"bufferView":20,
			"componentType":5126,
			"count":601,
			"type":"VEC4"
		},
		{
			"bufferView":21,
			"componentType":5123,
			"count":960,
			"type":"SCALAR"
		},
		{
			"bufferView":22,
			"componentType":5126,
			"count":8,
			"max":[
				1,
				1,
				0.009999990463256836
			],
			"min":[
				-1,
				-1,
				-0.010000384412705898
			],
			"type":"VEC3"
		},
		{
			"bufferView":23,
			"componentType":5126,
			"count":8,
			"type":"VEC3"
		},
		{
			"bufferView":24,
			"componentType":5126,
			"count":8,
			"type":"VEC2"
		},
		{
			"bufferView":25,
			"componentType":5126,
			"count":8,
			"type":"VEC4"
		},
		{
			"bufferView":26,
			"componentType":5123,
			"count":12,
			"type":"SCALAR"
		},
		{
			"bufferView":27,
			"componentType":5126,
			"count":76,
			"max":[
				1,
				1,
				0.009999990463256836
			],
			"min":[
				-1,
				-1,
				-0.010000384412705898
			],
			"type":"VEC3"
		},
		{
			"bufferView":28,
			"componentType":5126,
			"count":76,
			"type":"VEC3"
		},
		{
			"bufferView":29,
			"componentType":5126,
			"count":76,
			"type":"VEC2"
		},
		{
			"bufferView":30,
			"componentType":5126,
			"count":76,
			"type":"VEC4"
		},
		{
			"bufferView":31,
			"componentType":5123,
			"count":96,
			"type":"SCALAR"
		},
		{
			"bufferView":32,
			"componentType":5126,
			"count":548,
			"max":[
				2.215996026992798,
				0.33496367931365967,
				2.6399998664855957
			],
			"min":[
				-2.183807373046875,
				-0.7941397428512573,
				-0.13180206716060638
			],
			"type":"VEC3"
		},
		{
			"bufferView":33,
			"componentType":5126,
			"count":548,
			"type":"VEC3"
		},
		{
			"bufferView":34,
			"componentType":5126,
			"count":548,
			"type":"VEC2"
		},
		{
			"bufferView":35,
			"componentType":5126,
			"count":548,
			"type":"VEC4"
		},
		{
			"bufferView":36,
			"componentType":5123,
			"count":720,
			"type":"SCALAR"
		},
		{
			"bufferView":37,
			"componentType":5126,
			"count":36,
			"max":[
				2.188183546066284,
				0.2497011125087738,
				2.9367027282714844
			],
			"min":[
				-2.1137986183166504,
				-9.464429240324534e-12,
				0.019167041406035423
			],
			"type":"VEC3"
		},
		{
			"bufferView":38,
			"componentType":5126,
			"count":36,
			"type":"VEC3"
		},
		{
			"bufferView":39,
			"componentType":5126,
			"count":36,
			"type":"VEC2"
		},
		{
			"bufferView":40,
			"componentType":5126,
			"count":36,
			"type":"VEC4"
		},
		{
			"bufferView":41,
			"componentType":5123,
			"count":36,
			"type":"SCALAR"
		},
		{
			"bufferView":42,
			"componentType":5126,
			"count":890,
			"max":[
				4.256076812744141,
				0.33496370911598206,
				5.269639492034912
			],
			"min":[
				-4.254717826843262,
				-0.794139564037323,
				-0.13180209696292877
			],
			"type":"VEC3"
		},
		{
			"bufferView":43,
			"componentType":5126,
			"count":890,
			"type":"VEC3"
		},
		{
			"bufferView":44,
			"componentType":5126,
			"count":890,
			"type":"VEC2"
		},
		{
			"bufferView":45,
			"componentType":5126,
			"count":890,
			"type":"VEC4"
		},
		{
			"bufferView":46,
			"componentType":5123,
			"count":1056,
			"type":"SCALAR"
		},
		{
			"bufferView":47,
			"componentType":5126,
			"count":32,
			"max":[
				4.1627702713012695,
				0.24970084428787231,
				5.314065933227539
			],
			"min":[
				-4.1627702713012695,
				-1.6825651982799172e-11,
				0.019167065620422363
			],
			"type":"VEC3"
		},
		{
			"bufferView":48,
			"componentType":5126,
			"count":32,
			"type":"VEC3"
		},
		{
			"bufferView":49,
			"componentType":5126,
			"count":32,
			"type":"VEC2"
		},
		{
			"bufferView":50,
			"componentType":5126,
			"count":32,
			"type":"VEC4"
		},
		{
			"bufferView":51,
			"componentType":5123,
			"count":36,
			"type":"SCALAR"
		},
		{
			"bufferView":52,
			"componentType":5126,
			"count":1856,
			"max":[
				2.5676212310791016,
				3.786034345626831,
				3.200705051422119
			],
			"min":[
				-2.5676212310791016,
				-3.7862460613250732,
				-0.5157185792922974
			],
			"type":"VEC3"
		},
		{
			"bufferView":53,
			"componentType":5126,
			"count":1856,
			"type":"VEC3"
		},
		{
			"bufferView":54,
			"componentType":5126,
			"count":1856,
			"type":"VEC2"
		},
		{
			"bufferView":55,
			"componentType":5126,
			"count":1856,
			"type":"VEC2"
		},
		{
			"bufferView":56,
			"componentType":5126,
			"count":1856,
			"type":"VEC4"
		},
		{
			"bufferView":57,
			"componentType":5123,
			"count":2160,
			"type":"SCALAR"
		},
		{
			"bufferView":58,
			"componentType":5126,
			"count":2272,
			"max":[
				2.756538152694702,
				3.726191759109497,
				3.7178683280944824
			],
			"min":[
				-2.756538152694702,
				-3.757296562194824,
				-0.3878333568572998
			],
			"type":"VEC3"
		},
		{
			"bufferView":59,
			"componentType":5126,
			"count":2272,
			"type":"VEC3"
		},
		{
			"bufferView":60,
			"componentType":5126,
			"count":2272,
			"type":"VEC2"
		},
		{
			"bufferView":61,
			"componentType":5126,
			"count":2272,
			"type":"VEC2"
		},
		{
			"bufferView":62,
			"componentType":5126,
			"count":2272,
			"type":"VEC4"
		},
		{
			"bufferView":63,
			"componentType":5123,
			"count":5400,
			"type":"SCALAR"
		},
		{
			"bufferView":64,
			"componentType":5126,
			"count":2164,
			"max":[
				4.9567179679870605,
				4.856163024902344,
				5.600559711456299
			],
			"min":[
				-4.9567179679870605,
				-4.856163024902344,
				-0.7799561023712158
			],
			"type":"VEC3"
		},
		{
			"bufferView":65,
			"componentType":5126,
			"count":2164,
			"type":"VEC3"
		},
		{
			"bufferView":66,
			"componentType":5126,
			"count":2164,
			"type":"VEC2"
		},
		{
			"bufferView":67,
			"componentType":5126,
			"count":2164,
			"type":"VEC2"
		},
		{
			"bufferView":68,
			"componentType":5126,
			"count":2164,
			"type":"VEC4"
		},
		{
			"bufferView":69,
			"componentType":5123,
			"count":2688,
			"type":"SCALAR"
		},
		{
			"bufferView":70,
			"componentType":5126,
			"count":3540,
			"max":[
				4.975997447967529,
				5.08474063873291,
				6.001367092132568
			],
			"min":[
				-4.975997447967529,
				-5.247446537017822,
				-0.5717926621437073
			],
			"type":"VEC3"
		},
		{
			"bufferView":71,
			"componentType":5126,
			"count":3540,
			"type":"VEC3"
		},
		{
			"bufferView":72,
			"componentType":5126,
			"count":3540,
			"type":"VEC2"
		},
		{
			"bufferView":73,
			"componentType":5126,
			"count":3540,
			"type":"VEC2"
		},
		{
			"bufferView":74,
			"componentType":5126,
			"count":3540,
			"type":"VEC4"
		},
		{
			"bufferView":75,
			"componentType":5123,
			"count":8976,
			"type":"SCALAR"
		},
		{
			"bufferView":76,
			"componentType":5126,
			"count":71,
			"max":[
				1,
				0,
				3
			],
			"min":[
				-1,
				-1.3113415775478643e-07,
				0
			],
			"type":"VEC3"
		},
		{
			"bufferView":77,
			"componentType":5126,
			"count":71,
			"type":"VEC3"
		},
		{
			"bufferView":78,
			"componentType":5126,
			"count":71,
			"type":"VEC2"
		},
		{
			"bufferView":79,
			"componentType":5126,
			"count":71,
			"type":"VEC4"
		},
		{
			"bufferView":80,
			"componentType":5123,
			"count":135,
			"type":"SCALAR"
		},
		{
			"bufferView":81,
			"componentType":5126,
			"count":64,
			"max":[
				1,
				0.2000000923871994,
				3
			],
			"min":[
				-1,
				0.19999991357326508,
				0
			],
			"type":"VEC3"
		},
		{
			"bufferView":82,
			"componentType":5126,
			"count":64,
			"type":"VEC3"
		},
		{
			"bufferView":83,
			"componentType":5126,
			"count":64,
			"type":"VEC2"
		},
		{
			"bufferView":84,
			"componentType":5126,
			"count":64,
			"type":"VEC4"
		},
		{
			"bufferView":85,
			"componentType":5123,
			"count":123,
			"type":"SCALAR"
		},
		{
			"bufferView":86,
			"componentType":5126,
			"count":98,
			"max":[
				1,
				0.3140353262424469,
				3.1226887702941895
			],
			"min":[
				-1.0000001192092896,
				-0.09244640171527863,
				2.877309799194336
			],
			"type":"VEC3"
		},
		{
			"bufferView":87,
			"componentType":5126,
			"count":98,
			"type":"VEC3"
		},
		{
			"bufferView":88,
			"componentType":5126,
			"count":98,
			"type":"VEC2"
		},
		{
			"bufferView":89,
			"componentType":5126,
			"count":98,
			"type":"VEC4"
		},
		{
			"bufferView":90,
			"componentType":5123,
			"count":150,
			"type":"SCALAR"
		},
		{
			"bufferView":91,
			"componentType":5126,
			"count":12,
			"max":[
				1,
				0,
				3
			],
			"min":[
				-1,
				-1.3113415775478643e-07,
				0
			],
			"type":"VEC3"
		},
		{
			"bufferView":92,
			"componentType":5126,
			"count":12,
			"type":"VEC3"
		},
		{
			"bufferView":93,
			"componentType":5126,
			"count":12,
			"type":"VEC2"
		},
		{
			"bufferView":94,
			"componentType":5126,
			"count":12,
			"type":"VEC4"
		},
		{
			"bufferView":95,
			"componentType":5123,
			"count":12,
			"type":"SCALAR"
		},
		{
			"bufferView":96,
			"componentType":5126,
			"count":4,
			"max":[
				1,
				0.2000000923871994,
				3
			],
			"min":[
				-1,
				0.19999991357326508,
				0
			],
			"type":"VEC3"
		},
		{
			"bufferView":97,
			"componentType":5126,
			"count":4,
			"type":"VEC3"
		},
		{
			"bufferView":98,
			"componentType":5126,
			"count":4,
			"type":"VEC2"
		},
		{
			"bufferView":99,
			"componentType":5126,
			"count":4,
			"type":"VEC4"
		},
		{
			"bufferView":100,
			"componentType":5123,
			"count":6,
			"type":"SCALAR"
		},
		{
			"bufferView":101,
			"componentType":5126,
			"count":98,
			"max":[
				1,
				0.3140353262424469,
				3.1226887702941895
			],
			"min":[
				-1.0000001192092896,
				-0.09244640171527863,
				2.877309799194336
			],
			"type":"VEC3"
		},
		{
			"bufferView":102,
			"componentType":5126,
			"count":98,
			"type":"VEC3"
		},
		{
			"bufferView":103,
			"componentType":5126,
			"count":98,
			"type":"VEC2"
		},
		{
			"bufferView":104,
			"componentType":5126,
			"count":98,
			"type":"VEC4"
		},
		{
			"bufferView":105,
			"componentType":5126,
			"count":116,
			"max":[
				1,
				0,
				3
			],
			"min":[
				-1,
				-1.3113415775478643e-07,
				0
			],
			"type":"VEC3"
		},
		{
			"bufferView":106,
			"componentType":5126,
			"count":116,
			"type":"VEC3"
		},
		{
			"bufferView":107,
			"componentType":5126,
			"count":116,
			"type":"VEC2"
		},
		{
			"bufferView":108,
			"componentType":5126,
			"count":116,
			"type":"VEC2"
		},
		{
			"bufferView":109,
			"componentType":5126,
			"count":116,
			"type":"VEC4"
		},
		{
			"bufferView":110,
			"componentType":5123,
			"count":192,
			"type":"SCALAR"
		},
		{
			"bufferView":111,
			"componentType":5126,
			"count":93,
			"max":[
				1,
				0.2000000923871994,
				3
			],
			"min":[
				-1,
				0.19999991357326508,
				0
			],
			"type":"VEC3"
		},
		{
			"bufferView":112,
			"componentType":5126,
			"count":93,
			"type":"VEC3"
		},
		{
			"bufferView":113,
			"componentType":5126,
			"count":93,
			"type":"VEC2"
		},
		{
			"bufferView":114,
			"componentType":5126,
			"count":93,
			"type":"VEC2"
		},
		{
			"bufferView":115,
			"componentType":5126,
			"count":93,
			"type":"VEC4"
		},
		{
			"bufferView":116,
			"componentType":5123,
			"count":132,
			"type":"SCALAR"
		},
		{
			"bufferView":117,
			"componentType":5126,
			"count":98,
			"max":[
				1,
				0.3140353262424469,
				3.1226887702941895
			],
			"min":[
				-1.0000001192092896,
				-0.09244640171527863,
				2.877309799194336
			],
			"type":"VEC3"
		},
		{
			"bufferView":118,
			"componentType":5126,
			"count":98,
			"type":"VEC3"
		},
		{
			"bufferView":119,
			"componentType":5126,
			"count":98,
			"type":"VEC2"
		},
		{
			"bufferView":120,
			"componentType":5126,
			"count":98,
			"type":"VEC2"
		},
		{
			"bufferView":121,
			"componentType":5126,
			"count":98,
			"type":"VEC4"
		},
		{
			"bufferView":122,
			"componentType":5126,
			"count":708,
			"max":[
				0.44381028413772583,
				0.2520223557949066,
				2.6207287311553955
			],
			"min":[
				-0.44381028413772583,
				-0.0923665463924408,
				1.01604425907135
			],
			"type":"VEC3"
		},
		{
			"bufferView":123,
			"componentType":5126,
			"count":708,
			"type":"VEC3"
		},
		{
			"bufferView":124,
			"componentType":5126,
			"count":708,
			"type":"VEC2"
		},
		{
			"bufferView":125,
			"componentType":5126,
			"count":708,
			"type":"VEC2"
		},
		{
			"bufferView":126,
			"componentType":5126,
			"count":708,
			"type":"VEC4"
		},
		{
			"bufferView":127,
			"componentType":5123,
			"count":900,
			"type":"SCALAR"
		},
		{
			"bufferView":128,
			"componentType":5126,
			"count":338,
			"max":[
				0.277061402797699,
				-0.0038879886269569397,
				2.478931427001953
			],
			"min":[
				-0.27893951535224915,
				-0.003888234496116638,
				1.0875728130340576
			],
			"type":"VEC3"
		},
		{
			"bufferView":129,
			"componentType":5126,
			"count":338,
			"type":"VEC3"
		},
		{
			"bufferView":130,
			"componentType":5126,
			"count":338,
			"type":"VEC2"
		},
		{
			"bufferView":131,
			"componentType":5126,
			"count":338,
			"type":"VEC2"
		},
		{
			"bufferView":132,
			"componentType":5126,
			"count":338,
			"type":"VEC4"
		},
		{
			"bufferView":133,
			"componentType":5123,
			"count":354,
			"type":"SCALAR"
		}
	],
	"bufferViews":[
		{
			"buffer":0,
			"byteLength":29088,
			"byteOffset":0,
			"target":34962
		},
		{
			"buffer":0,
			"byteLength":29088,
			"byteOffset":29088,
			"target":34962
		},
		{
			"buffer":0,
			"byteLength":19392,
			"byteOffset":58176,
			"target":34962
		},
		{
			"buffer":0,
			"byteLength":38784,
			"byteOffset":77568,
			"target":34962
		},
		{
			"buffer":0,
			"byteLength":18612,
			"byteOffset":116352,
			"target":34963
		},
		{
			"buffer":0,
			"byteLength":8700,
			"byteOffset":134964,
			"target":34962
		},
		{
			"buffer":0,
			"byteLength":8700,
			"byteOffset":143664,
			"target":34962
		},
		{
			"buffer":0,
			"byteLength":5800,
			"byteOffset":152364,
			"target":34962
		},
		{
			"buffer":0,
			"byteLength":5800,
			"byteOffset":158164,
			"target":34962
		},
		{
			"buffer":0,
			"byteLength":11600,
			"byteOffset":163964,
			"target":34962
		},
		{
			"buffer":0,
			"byteLength":3924,
			"byteOffset":175564,
			"target":34963
		},
		{
			"buffer":0,
			"byteLength":15228,
			"byteOffset":179488,
			"target":34962
		},
		{
			"buffer":0,
			"byteLength":15228,
			"byteOffset":194716,
			"target":34962
		},
		{
			"buffer":0,
			"byteLength":10152,
			"byteOffset":209944,
			"target":34962
		},
		{
			"buffer":0,
			"byteLength":10152,
			"byteOffset":220096,
			"target":34962
		},
		{
			"buffer":0,
			"byteLength":20304,
			"byteOffset":230248,
			"target":34962
		},
		{
			"buffer":0,
			"byteLength":2928,
			"byteOffset":250552,
			"target":34963
		},
		{
			"buffer":0,
			"byteLength":7212,
			"byteOffset":253480,
			"target":34962
		},
		{
			"buffer":0,
			"byteLength":7212,
			"byteOffset":260692,
			"target":34962
		},
		{
			"buffer":0,
			"byteLength":4808,
			"byteOffset":267904,
			"target":34962
		},
		{
			"buffer":0,
			"byteLength":9616,
			"byteOffset":272712,
			"target":34962
		},
		{
			"buffer":0,
			"byteLength":1920,
			"byteOffset":282328,
			"target":34963
		},
		{
			"buffer":0,
			"byteLength":96,
			"byteOffset":284248,
			"target":34962
		},
		{
			"buffer":0,
			"byteLength":96,
			"byteOffset":284344,
			"target":34962
		},
		{
			"buffer":0,
			"byteLength":64,
			"byteOffset":284440,
			"target":34962
		},
		{
			"buffer":0,
			"byteLength":128,
			"byteOffset":284504,
			"target":34962
		},
		{
			"buffer":0,
			"byteLength":24,
			"byteOffset":284632,
			"target":34963
		},
		{
			"buffer":0,
			"byteLength":912,
			"byteOffset":284656,
			"target":34962
		},
		{
			"buffer":0,
			"byteLength":912,
			"byteOffset":285568,
			"target":34962
		},
		{
			"buffer":0,
			"byteLength":608,
			"byteOffset":286480,
			"target":34962
		},
		{
			"buffer":0,
			"byteLength":1216,
			"byteOffset":287088,
			"target":34962
		},
		{
			"buffer":0,
			"byteLength":192,
			"byteOffset":288304,
			"target":34963
		},
		{
			"buffer":0,
			"byteLength":6576,
			"byteOffset":288496,
			"target":34962
		},
		{
			"buffer":0,
			"byteLength":6576,
			"byteOffset":295072,
			"target":34962
		},
		{
			"buffer":0,
			"byteLength":4384,
			"byteOffset":301648,
			"target":34962
		},
		{
			"buffer":0,
			"byteLength":8768,
			"byteOffset":306032,
			"target":34962
		},
		{
			"buffer":0,
			"byteLength":1440,
			"byteOffset":314800,
			"target":34963
		},
		{
			"buffer":0,
			"byteLength":432,
			"byteOffset":316240,
			"target":34962
		},
		{
			"buffer":0,
			"byteLength":432,
			"byteOffset":316672,
			"target":34962
		},
		{
			"buffer":0,
			"byteLength":288,
			"byteOffset":317104,
			"target":34962
		},
		{
			"buffer":0,
			"byteLength":576,
			"byteOffset":317392,
			"target":34962
		},
		{
			"buffer":0,
			"byteLength":72,
			"byteOffset":317968,
			"target":34963
		},
		{
			"buffer":0,
			"byteLength":10680,
			"byteOffset":318040,
			"target":34962
		},
		{
			"buffer":0,
			"byteLength":10680,
			"byteOffset":328720,
			"target":34962
		},
		{
			"buffer":0,
			"byteLength":7120,
			"byteOffset":339400,
			"target":34962
		},
		{
			"buffer":0,
			"byteLength":14240,
			"byteOffset":346520,
			"target":34962
		},
		{
			"buffer":0,
			"byteLength":2112,
			"byteOffset":360760,
			"target":34963
		},
		{
			"buffer":0,
			"byteLength":384,
			"byteOffset":362872,
			"target":34962
		},
		{
			"buffer":0,
			"byteLength":384,
			"byteOffset":363256,
			"target":34962
		},
		{
			"buffer":0,
			"byteLength":256,
			"byteOffset":363640,
			"target":34962
		},
		{
			"buffer":0,
			"byteLength":512,
			"byteOffset":363896,
			"target":34962
		},
		{
			"buffer":0,
			"byteLength":72,
			"byteOffset":364408,
			"target":34963
		},
		{
			"buffer":0,
			"byteLength":22272,
			"byteOffset":364480,
			"target":34962
		},
		{
			"buffer":0,
			"byteLength":22272,
			"byteOffset":386752,
			"target":34962
		},
		{
			"buffer":0,
			"byteLength":14848,
			"byteOffset":409024,
			"target":34962
		},
		{
			"buffer":0,
			"byteLength":14848,
			"byteOffset":423872,
			"target":34962
		},
		{
			"buffer":0,
			"byteLength":29696,
			"byteOffset":438720,
			"target":34962
		},
		{
			"buffer":0,
			"byteLength":4320,
			"byteOffset":468416,
			"target":34963
		},
		{
			"buffer":0,
			"byteLength":27264,
			"byteOffset":472736,
			"target":34962
		},
		{
			"buffer":0,
			"byteLength":27264,
			"byteOffset":500000,
			"target":34962
		},
		{
			"buffer":0,
			"byteLength":18176,
			"byteOffset":527264,
			"target":34962
		},
		{
			"buffer":0,
			"byteLength":18176,
			"byteOffset":545440,
			"target":34962
		},
		{
			"buffer":0,
			"byteLength":36352,
			"byteOffset":563616,
			"target":34962
		},
		{
			"buffer":0,
			"byteLength":10800,
			"byteOffset":599968,
			"target":34963
		},
		{
			"buffer":0,
			"byteLength":25968,
			"byteOffset":610768,
			"target":34962
		},
		{
			"buffer":0,
			"byteLength":25968,
			"byteOffset":636736,
			"target":34962
		},
		{
			"buffer":0,
			"byteLength":17312,
			"byteOffset":662704,
			"target":34962
		},
		{
			"buffer":0,
			"byteLength":17312,
			"byteOffset":680016,
			"target":34962
		},
		{
			"buffer":0,
			"byteLength":34624,
			"byteOffset":697328,
			"target":34962
		},
		{
			"buffer":0,
			"byteLength":5376,
			"byteOffset":731952,
			"target":34963
		},
		{
			"buffer":0,
			"byteLength":42480,
			"byteOffset":737328,
			"target":34962
		},
		{
			"buffer":0,
			"byteLength":42480,
			"byteOffset":779808,
			"target":34962
		},
		{
			"buffer":0,
			"byteLength":28320,
			"byteOffset":822288,
			"target":34962
		},
		{
			"buffer":0,
			"byteLength":28320,
			"byteOffset":850608,
			"target":34962
		},
		{
			"buffer":0,
			"byteLength":56640,
			"byteOffset":878928,
			"target":34962
		},
		{
			"buffer":0,
			"byteLength":17952,
			"byteOffset":935568,
			"target":34963
		},
		{
			"buffer":0,
			"byteLength":852,
			"byteOffset":953520,
			"target":34962
		},
		{
			"buffer":0,
			"byteLength":852,
			"byteOffset":954372,
			"target":34962
		},
		{
			"buffer":0,
			"byteLength":568,
			"byteOffset":955224,
			"target":34962
		},
		{
			"buffer":0,
			"byteLength":1136,
			"byteOffset":955792,
			"target":34962
		},
		{
			"buffer":0,
			"byteLength":270,
			"byteOffset":956928,
			"target":34963
		},
		{
			"buffer":0,
			"byteLength":768,
			"byteOffset":957200,
			"target":34962
		},
		{
			"buffer":0,
			"byteLength":768,
			"byteOffset":957968,
			"target":34962
		},
		{
			"buffer":0,
			"byteLength":512,
			"byteOffset":958736,
			"target":34962
		},
		{
			"buffer":0,
			"byteLength":1024,
			"byteOffset":959248,
			"target":34962
		},
		{
			"buffer":0,
			"byteLength":246,
			"byteOffset":960272,
			"target":34963
		},
		{
			"buffer":0,
			"byteLength":1176,
			"byteOffset":960520,
			"target":34962
		},
		{
			"buffer":0,
			"byteLength":1176,
			"byteOffset":961696,
			"target":34962
		},
		{
			"buffer":0,
			"byteLength":784,
			"byteOffset":962872,
			"target":34962
		},
		{
			"buffer":0,
			"byteLength":1568,
			"byteOffset":963656,
			"target":34962
		},
		{
			"buffer":0,
			"byteLength":300,
			"byteOffset":965224,
			"target":34963
		},
		{
			"buffer":0,
			"byteLength":144,
			"byteOffset":965524,
			"target":34962
		},
		{
			"buffer":0,
			"byteLength":144,
			"byteOffset":965668,
			"target":34962
		},
		{
			"buffer":0,
			"byteLength":96,
			"byteOffset":965812,
			"target":34962
		},
		{
			"buffer":0,
			"byteLength":192,
			"byteOffset":965908,
			"target":34962
		},
		{
			"buffer":0,
			"byteLength":24,
			"byteOffset":966100,
			"target":34963
		},
		{
			"buffer":0,
			"byteLength":48,
			"byteOffset":966124,
			"target":34962
		},
		{
			"buffer":0,
			"byteLength":48,
			"byteOffset":966172,
			"target":34962
		},
		{
			"buffer":0,
			"byteLength":32,
			"byteOffset":966220,
			"target":34962
		},
		{
			"buffer":0,
			"byteLength":64,
			"byteOffset":966252,
			"target":34962
		},
		{
			"buffer":0,
			"byteLength":12,
			"byteOffset":966316,
			"target":34963
		},
		{
			"buffer":0,
			"byteLength":1176,
			"byteOffset":966328,
			"target":34962
		},
		{
			"buffer":0,
			"byteLength":1176,
			"byteOffset":967504,
			"target":34962
		},
		{
			"buffer":0,
			"byteLength":784,
			"byteOffset":968680,
			"target":34962
		},
		{
			"buffer":0,
			"byteLength":1568,
			"byteOffset":969464,
			"target":34962
		},
		{
			"buffer":0,
			"byteLength":1392,
			"byteOffset":971032,
			"target":34962
		},
		{
			"buffer":0,
			"byteLength":1392,
			"byteOffset":972424,
			"target":34962
		},
		{
			"buffer":0,
			"byteLength":928,
			"byteOffset":973816,
			"target":34962
		},
		{
			"buffer":0,
			"byteLength":928,
			"byteOffset":974744,
			"target":34962
		},
		{
			"buffer":0,
			"byteLength":1856,
			"byteOffset":975672,
			"target":34962
		},
		{
			"buffer":0,
			"byteLength":384,
			"byteOffset":977528,
			"target":34963
		},
		{
			"buffer":0,
			"byteLength":1116,
			"byteOffset":977912,
			"target":34962
		},
		{
			"buffer":0,
			"byteLength":1116,
			"byteOffset":979028,
			"target":34962
		},
		{
			"buffer":0,
			"byteLength":744,
			"byteOffset":980144,
			"target":34962
		},
		{
			"buffer":0,
			"byteLength":744,
			"byteOffset":980888,
			"target":34962
		},
		{
			"buffer":0,
			"byteLength":1488,
			"byteOffset":981632,
			"target":34962
		},
		{
			"buffer":0,
			"byteLength":264,
			"byteOffset":983120,
			"target":34963
		},
		{
			"buffer":0,
			"byteLength":1176,
			"byteOffset":983384,
			"target":34962
		},
		{
			"buffer":0,
			"byteLength":1176,
			"byteOffset":984560,
			"target":34962
		},
		{
			"buffer":0,
			"byteLength":784,
			"byteOffset":985736,
			"target":34962
		},
		{
			"buffer":0,
			"byteLength":784,
			"byteOffset":986520,
			"target":34962
		},
		{
			"buffer":0,
			"byteLength":1568,
			"byteOffset":987304,
			"target":34962
		},
		{
			"buffer":0,
			"byteLength":8496,
			"byteOffset":988872,
			"target":34962
		},
		{
			"buffer":0,
			"byteLength":8496,
			"byteOffset":997368,
			"target":34962
		},
		{
			"buffer":0,
			"byteLength":5664,
			"byteOffset":1005864,
			"target":34962
		},
		{
			"buffer":0,
			"byteLength":5664,
			"byteOffset":1011528,
			"target":34962
		},
		{
			"buffer":0,
			"byteLength":11328,
			"byteOffset":1017192,
			"target":34962
		},
		{
			"buffer":0,
			"byteLength":1800,
			"byteOffset":1028520,
			"target":34963
		},
		{
			"buffer":0,
			"byteLength":4056,
			"byteOffset":1030320,
			"target":34962
		},
		{
			"buffer":0,
			"byteLength":4056,
			"byteOffset":1034376,
			"target":34962
		},
		{
			"buffer":0,
			"byteLength":2704,
			"byteOffset":1038432,
			"target":34962
		},
		{
			"buffer":0,
			"byteLength":2704,
			"byteOffset":1041136,
			"target":34962
		},
		{
			"buffer":0,
			"byteLength":5408,
			"byteOffset":1043840,
			"target":34962
		},
		{
			"buffer":0,
			"byteLength":708,
			"byteOffset":1049248,
			"target":34963
		}
	],
	"samplers":[
		{
			"magFilter":9729,
			"minFilter":9987
		}
	],
	"buffers":[
		{
			"byteLength":1049956,
			"uri":"house_orig.bin"
		}
	]
}
