# Blender v3.0.1 OBJ File: ''
# www.blender.org
mtllib ground_riverStraight.mtl
o ground_riverStraight
v 0.341000 0.000000 -0.125000
v 0.279000 -0.050000 0.125000
v 0.341000 -0.000000 0.125000
v 0.279000 -0.050000 -0.125000
v 0.279000 0.000000 -0.375000
v 0.217000 -0.050000 -0.375000
v 0.279000 0.000000 -0.500000
v 0.217000 -0.050000 -0.500000
v 0.279000 -0.000000 0.375000
v 0.217000 -0.050000 0.375000
v -0.217000 -0.050000 -0.375000
v -0.217000 0.000000 -0.125000
v -0.155000 -0.050000 -0.125000
v -0.279000 0.000000 -0.375000
v -0.217000 -0.050000 0.375000
v -0.279000 -0.000000 0.500000
v -0.217000 -0.050000 0.500000
v -0.279000 -0.000000 0.375000
v 0.279000 -0.000000 0.500000
v 0.217000 -0.050000 0.500000
v -0.217000 -0.000000 0.125000
v -0.155000 -0.050000 0.125000
v -0.217000 -0.050000 -0.500000
v -0.279000 0.000000 -0.500000
v -0.317000 0.000000 -0.125000
v -0.317000 -0.000000 0.125000
v -0.379000 0.000000 -0.375000
v -0.379000 0.000000 -0.500000
v -0.379000 -0.000000 0.500000
v -0.500000 -0.000000 0.500000
v -0.500000 0.000000 -0.500000
v 0.500000 0.000000 -0.500000
v 0.441000 0.000000 -0.125000
v 0.500000 -0.000000 0.500000
v 0.379000 0.000000 -0.500000
v 0.441000 -0.000000 0.125000
v 0.379000 0.000000 -0.375000
v 0.379000 -0.000000 0.500000
v 0.379000 -0.000000 0.375000
v -0.379000 0.000000 0.375000
vt -4.921260 10.450350
vt 4.921260 7.314552
vt 4.921260 10.450350
vt -4.921260 7.314552
vt -11.685690 10.933480
vt -2.132563 7.853217
vt -1.545008 10.933480
vt -12.273240 7.853217
vt -19.685040 8.550285
vt -14.763780 5.414488
vt -14.763780 8.550285
vt -19.685040 5.414488
vt 2.132563 7.853217
vt 11.685690 10.933480
vt 1.545008 10.933480
vt 12.273240 7.853217
vt 16.386129 2.386479
vt 6.833007 5.466738
vt 6.245451 2.386479
vt 16.973690 5.466738
vt -14.763780 5.414488
vt -19.685040 8.550285
vt -19.685040 5.414488
vt -14.763780 8.550285
vt 14.763780 5.414488
vt 19.685040 8.550285
vt 14.763780 8.550285
vt 19.685040 5.414488
vt 4.921260 3.514425
vt -4.921260 6.650222
vt -4.921260 3.514425
vt 4.921260 6.650222
vt 19.685040 5.414488
vt 14.763780 8.550285
vt 14.763780 5.414488
vt 19.685040 8.550285
vt -6.833007 5.466738
vt -16.386129 2.386479
vt -6.245451 2.386479
vt -16.973690 5.466738
vt 12.480320 -4.921260
vt 14.921260 14.763780
vt 12.480320 4.921260
vt 14.921260 -14.763780
vt 19.685040 19.685040
vt 14.921260 -19.685040
vt 19.685040 -19.685040
vt -19.685040 -19.685040
vt -17.362209 -4.921260
vt -19.685040 19.685040
vt -14.921260 -19.685040
vt -17.362209 4.921260
vt -14.921260 -14.763780
vt -14.921260 19.685040
vt -14.921260 14.763780
vt 14.921260 19.685040
vt 0.000000 0.000000
vt 10.984250 -19.685040
vt 10.984250 14.763780
vt 10.984250 19.685040
vt 8.543307 -4.921260
vt 8.543307 4.921260
vt -13.425200 -4.921260
vt -13.425200 4.921260
vt -10.984250 -19.685040
vt -10.984250 -14.763780
vt -10.984250 19.685040
vt -10.984250 14.763780
vn -0.6278 0.7784 0.0000
vn -0.6203 0.7691 0.1538
vn -0.6203 0.7691 -0.1538
vn 0.6203 0.7691 -0.1538
vn 0.6278 0.7784 0.0000
vn 0.6203 0.7691 0.1538
vn 0.0000 1.0000 0.0000
usemtl dirtDark
s 1
f 1/1/1 2/2/1 3/3/1
f 2/2/1 1/1/1 4/4/1
f 5/5/2 4/6/2 1/7/2
f 4/6/2 5/5/2 6/8/2
f 7/9/1 6/10/1 5/11/1
f 6/10/1 7/9/1 8/12/1
f 2/13/3 9/14/3 3/15/3
f 9/14/3 2/13/3 10/16/3
f 11/17/4 12/18/4 13/19/4
f 12/18/4 11/17/4 14/20/4
f 15/21/5 16/22/5 17/23/5
f 16/22/5 15/21/5 18/24/5
f 10/25/1 19/26/1 9/27/1
f 19/26/1 10/25/1 20/28/1
f 13/29/5 21/30/5 22/31/5
f 21/30/5 13/29/5 12/32/5
f 23/33/5 14/34/5 11/35/5
f 14/34/5 23/33/5 24/36/5
f 21/37/6 15/38/6 22/39/6
f 15/38/6 21/37/6 18/40/6
usemtl grass
f 25/41/7 40/42/7 26/43/7
f 40/42/7 25/41/7 27/44/7
f 27/44/7 30/45/7 40/42/7
f 30/45/7 27/44/7 28/46/7
f 30/45/7 28/46/7 31/47/7
f 32/48/7 33/49/7 34/50/7
f 33/49/7 32/48/7 35/51/7
f 34/50/7 33/49/7 36/52/7
f 33/49/7 35/51/7 37/53/7
f 36/52/7 38/54/7 34/50/7
f 38/54/7 36/52/7 39/55/7
f 40/42/7 30/45/7 29/56/7
usemtl water
f 10/25/7 17/57/7 20/28/7
f 17/57/7 10/25/7 15/21/7
f 10/25/7 2/13/7 15/21/7
f 15/21/7 2/13/7 22/39/7
f 2/13/7 4/4/7 22/39/7
f 22/39/7 4/4/7 13/29/7
f 4/4/7 6/8/7 13/29/7
f 13/29/7 6/8/7 11/17/7
f 6/8/7 8/12/7 11/17/7
f 11/17/7 8/12/7 23/33/7
usemtl dirt
f 24/58/7 25/41/7 26/43/7
f 25/41/7 24/58/7 28/46/7
f 25/41/7 28/46/7 27/44/7
f 18/59/7 12/18/7 26/43/7
f 18/59/7 26/43/7 16/60/7
f 24/58/7 26/43/7 14/34/7
f 14/34/7 26/43/7 12/18/7
f 12/61/7 18/59/7 21/62/7
f 16/60/7 26/43/7 29/56/7
f 29/56/7 26/43/7 40/42/7
f 35/51/7 1/63/7 3/64/7
f 1/63/7 35/51/7 7/65/7
f 1/63/7 7/65/7 5/66/7
f 38/54/7 39/55/7 3/64/7
f 39/55/7 37/53/7 3/64/7
f 35/51/7 3/64/7 37/53/7
f 39/55/7 33/49/7 37/53/7
f 33/49/7 39/55/7 36/52/7
f 38/54/7 3/64/7 19/67/7
f 19/67/7 3/64/7 9/68/7
